{
  "accessors": [
    {
      "bufferView": 2,
      "componentType": 5126,
      "count": 240,
      "max": [
        0.90880197286605835,
        1.4487489461898804,
        2.3945159912109375
      ],
      "min": [
        -0.99331402778625488,
        -0.55125099420547485,
        0.3945159912109375
      ],
      "type": "VEC3"
    },
    {
      "bufferView": 2,
      "byteOffset": 2880,
      "componentType": 5126,
      "count": 240,
      "max": [
        0.99208128452301025,
        0.9435158371925354,
        0.94353574514389038
      ],
      "min": [
        -0.99208128452301025,
        -0.9435158371925354,
        -0.94353574514389038
      ],
      "type": "VEC3"
    },
    {
      "bufferView": 1,
      "componentType": 5126,
      "count": 240,
      "max": [
        1,
        0.47238200902938843
      ],
      "min": [
        0,
        0
      ],
      "type": "VEC2"
    },
    {
      "bufferView": 0,
      "componentType": 5125,
      "count": 240,
      "max": [
        239
      ],
      "min": [
        0
      ],
      "type": "SCALAR"
    },
    {
      "bufferView": 2,
      "byteOffset": 5760,
      "componentType": 5126,
      "count": 65534,
      "max": [
        9.2957420349121094,
        3.9859139919281006,
        -0.68618100881576538
      ],
      "min": [
        -3.6317150592803955,
        -3.3153510093688965,
        -2.5469660758972168
      ],
      "type": "VEC3"
    },
    {
      "bufferView": 2,
      "byteOffset": 792168,
      "componentType": 5126,
      "count": 65534,
      "max": [
        1,
        1,
        1
      ],
      "min": [
        -1,
        -1,
        -1
      ],
      "type": "VEC3"
    },
    {
      "bufferView": 1,
      "byteOffset": 1920,
      "componentType": 5126,
      "count": 65534,
      "max": [
        0.875,
        1
      ],
      "min": [
        0.125,
        0
      ],
      "type": "VEC2"
    },
    {
      "bufferView": 0,
      "byteOffset": 960,
      "componentType": 5125,
      "count": 130077,
      "max": [
        65533
      ],
      "min": [
        0
      ],
      "type": "SCALAR"
    },
    {
      "bufferView": 2,
      "byteOffset": 1578576,
      "componentType": 5126,
      "count": 44049,
      "max": [
        9.2957420349121094,
        3.9859139919281006,
        -0.68618100881576538
      ],
      "min": [
        -3.6317150592803955,
        -3.3153510093688965,
        -2.5469660758972168
      ],
      "type": "VEC3"
    },
    {
      "bufferView": 2,
      "byteOffset": 2107164,
      "componentType": 5126,
      "count": 44049,
      "max": [
        0.99994385242462158,
        0.999836266040802,
        1
      ],
      "min": [
        -0.99997270107269287,
        -0.99918770790100098,
        -1
      ],
      "type": "VEC3"
    },
    {
      "bufferView": 1,
      "byteOffset": 526192,
      "componentType": 5126,
      "count": 44049,
      "max": [
        0.875,
        1
      ],
      "min": [
        0.125,
        0
      ],
      "type": "VEC2"
    },
    {
      "bufferView": 0,
      "byteOffset": 521268,
      "componentType": 5125,
      "count": 70695,
      "max": [
        44048
      ],
      "min": [
        0
      ],
      "type": "SCALAR"
    },
    {
      "bufferView": 2,
      "byteOffset": 2635752,
      "componentType": 5126,
      "count": 964,
      "max": [
        1.0792620182037354,
        1.4423149824142456,
        4.1582479476928711
      ],
      "min": [
        -0.57096701860427856,
        0.59049898386001587,
        3.429934024810791
      ],
      "type": "VEC3"
    },
    {
      "bufferView": 2,
      "byteOffset": 2647320,
      "componentType": 5126,
      "count": 964,
      "max": [
        0.9997522234916687,
        0.99949926137924194,
        0.99769783020019531
      ],
      "min": [
        -0.9997522234916687,
        -0.99949926137924194,
        -0.99769783020019531
      ],
      "type": "VEC3"
    },
    {
      "bufferView": 1,
      "byteOffset": 878584,
      "componentType": 5126,
      "count": 964,
      "max": [
        1.1177890300750732,
        1.1217249631881714
      ],
      "min": [
        -0.12174300104379654,
        -0.11780700087547302
      ],
      "type": "VEC2"
    },
    {
      "bufferView": 0,
      "byteOffset": 804048,
      "componentType": 5125,
      "count": 5760,
      "max": [
        963
      ],
      "min": [
        0
      ],
      "type": "SCALAR"
    },
    {
      "bufferView": 2,
      "byteOffset": 2658888,
      "componentType": 5126,
      "count": 65532,
      "max": [
        3.9239449501037598,
        2.9711549282073975,
        4.5503067970275879
      ],
      "min": [
        -2.5411689281463623,
        -2.6541790962219238,
        -1.0283299684524536
      ],
      "type": "VEC3"
    },
    {
      "bufferView": 2,
      "byteOffset": 3445272,
      "componentType": 5126,
      "count": 65532,
      "max": [
        0.99998593330383301,
        0.99998080730438232,
        0.99995434284210205
      ],
      "min": [
        -0.99997782707214355,
        -0.9999382495880127,
        -0.99999308586120605
      ],
      "type": "VEC3"
    },
    {
      "bufferView": 1,
      "byteOffset": 886296,
      "componentType": 5126,
      "count": 65532,
      "max": [
        0.99474602937698364,
        0.99389100074768066
      ],
      "min": [
        0.14031599462032318,
        0.0051199998706579208
      ],
      "type": "VEC2"
    },
    {
      "bufferView": 0,
      "byteOffset": 827088,
      "componentType": 5125,
      "count": 363579,
      "max": [
        65531
      ],
      "min": [
        0
      ],
      "type": "SCALAR"
    },
    {
      "bufferView": 2,
      "byteOffset": 4231656,
      "componentType": 5126,
      "count": 37394,
      "max": [
        9.2965126037597656,
        4.0846161842346191,
        4.5503067970275879
      ],
      "min": [
        -2.5411689281463623,
        -2.6514530181884766,
        -1.1311730146408081
      ],
      "type": "VEC3"
    },
    {
      "bufferView": 2,
      "byteOffset": 4680384,
      "componentType": 5126,
      "count": 37394,
      "max": [
        0.99909061193466187,
        0.99998199939727783,
        0.99990630149841309
      ],
      "min": [
        -0.99997782707214355,
        -0.99970465898513794,
        -0.99999308586120605
      ],
      "type": "VEC3"
    },
    {
      "bufferView": 1,
      "byteOffset": 1410552,
      "componentType": 5126,
      "count": 37394,
      "max": [
        0.99058002233505249,
        0.99043899774551392
      ],
      "min": [
        0.042215000838041306,
        0.0056039998307824135
      ],
      "type": "VEC2"
    },
    {
      "bufferView": 0,
      "byteOffset": 2281404,
      "componentType": 5125,
      "count": 177315,
      "max": [
        37393
      ],
      "min": [
        0
      ],
      "type": "SCALAR"
    },
    {
      "bufferView": 2,
      "byteOffset": 5129112,
      "componentType": 5126,
      "count": 65532,
      "max": [
        -0.36728200316429138,
        2.9036219120025635,
        2.4986050128936768
      ],
      "min": [
        -2.2567451000213623,
        0.47511199116706848,
        1.2626090049743652
      ],
      "type": "VEC3"
    },
    {
      "bufferView": 2,
      "byteOffset": 5915496,
      "componentType": 5126,
      "count": 65532,
      "max": [
        0.99993777275085449,
        0.99996519088745117,
        0.99998044967651367
      ],
      "min": [
        -0.99925607442855835,
        -0.99996161460876465,
        -0.9999995231628418
      ],
      "type": "VEC3"
    },
    {
      "bufferView": 1,
      "byteOffset": 1709704,
      "componentType": 5126,
      "count": 65532,
      "max": [
        0.31738701462745667,
        0.34688898921012878
      ],
      "min": [
        0.0072209998033940792,
        0.0054700002074241638
      ],
      "type": "VEC2"
    },
    {
      "bufferView": 0,
      "byteOffset": 2990664,
      "componentType": 5125,
      "count": 382836,
      "max": [
        65531
      ],
      "min": [
        0
      ],
      "type": "SCALAR"
    },
    {
      "bufferView": 2,
      "byteOffset": 6701880,
      "componentType": 5126,
      "count": 14764,
      "max": [
        -0.41320499777793884,
        2.8996551036834717,
        2.4761550426483154
      ],
      "min": [
        -2.1939940452575684,
        0.53902202844619751,
        1.2708899974822998
      ],
      "type": "VEC3"
    },
    {
      "bufferView": 2,
      "byteOffset": 6879048,
      "componentType": 5126,
      "count": 14764,
      "max": [
        0.99933862686157227,
        0.99567991495132446,
        0.97487050294876099
      ],
      "min": [
        -0.93154323101043701,
        -0.99042975902557373,
        -0.99982196092605591
      ],
      "type": "VEC3"
    },
    {
      "bufferView": 1,
      "byteOffset": 2233960,
      "componentType": 5126,
      "count": 14764,
      "max": [
        0.30687299370765686,
        0.30408599972724915
      ],
      "min": [
        0.015664000064134598,
        0.01255400013178587
      ],
      "type": "VEC2"
    },
    {
      "bufferView": 0,
      "byteOffset": 4522008,
      "componentType": 5125,
      "count": 81036,
      "max": [
        14763
      ],
      "min": [
        0
      ],
      "type": "SCALAR"
    },
    {
      "bufferView": 2,
      "byteOffset": 7056216,
      "componentType": 5126,
      "count": 65532,
      "max": [
        2.4947829246520996,
        2.8765859603881836,
        2.6801149845123291
      ],
      "min": [
        0.39399600028991699,
        0.48206698894500732,
        1.4088530540466309
      ],
      "type": "VEC3"
    },
    {
      "bufferView": 2,
      "byteOffset": 7842600,
      "componentType": 5126,
      "count": 65532,
      "max": [
        0.99996554851531982,
        0.99998974800109863,
        0.99989199638366699
      ],
      "min": [
        -0.99998116493225098,
        -0.99997329711914062,
        -0.99998593330383301
      ],
      "type": "VEC3"
    },
    {
      "bufferView": 1,
      "byteOffset": 2352072,
      "componentType": 5126,
      "count": 65532,
      "max": [
        0.31738701462745667,
        0.34688898921012878
      ],
      "min": [
        0.0072209998033940792,
        0.0054700002074241638
      ],
      "type": "VEC2"
    },
    {
      "bufferView": 0,
      "byteOffset": 4846152,
      "componentType": 5125,
      "count": 382902,
      "max": [
        65531
      ],
      "min": [
        0
      ],
      "type": "SCALAR"
    },
    {
      "bufferView": 2,
      "byteOffset": 8628984,
      "componentType": 5126,
      "count": 14740,
      "max": [
        2.4205410480499268,
        2.8747479915618896,
        2.6678569316864014
      ],
      "min": [
        0.43860301375389099,
        0.5281519889831543,
        1.4231990575790405
      ],
      "type": "VEC3"
    },
    {
      "bufferView": 2,
      "byteOffset": 8805864,
      "componentType": 5126,
      "count": 14740,
      "max": [
        0.90067589282989502,
        0.99992787837982178,
        0.9908144474029541
      ],
      "min": [
        -0.99892657995223999,
        -0.99990308284759521,
        -0.99986475706100464
      ],
      "type": "VEC3"
    },
    {
      "bufferView": 1,
      "byteOffset": 2876328,
      "componentType": 5126,
      "count": 14740,
      "max": [
        0.30687299370765686,
        0.30408599972724915
      ],
      "min": [
        0.015664000064134598,
        0.015953000634908676
      ],
      "type": "VEC2"
    },
    {
      "bufferView": 0,
      "byteOffset": 6377760,
      "componentType": 5125,
      "count": 80970,
      "max": [
        14739
      ],
      "min": [
        0
      ],
      "type": "SCALAR"
    }
  ],
  "asset": {
    "extras": {
      "author": "wayneartist (https://sketchfab.com/wayneartist)",
      "license": "CC-BY-4.0 (http://creativecommons.org/licenses/by/4.0/)",
      "source": "https://sketchfab.com/3d-models/jabba-the-hutt-from-star-wars-return-of-the-jedi-d8f34d9ece52441384c9c2d760b3d618",
      "title": "JABBA The Hutt From Star Wars Return of the Jedi"
    },
    "generator": "Sketchfab-8.77.2",
    "version": "2.0"
  },
  "bufferViews": [
    {
      "buffer": 0,
      "byteLength": 6701640,
      "byteOffset": 0,
      "name": "floatBufferViews",
      "target": 34963
    },
    {
      "buffer": 0,
      "byteLength": 2994248,
      "byteOffset": 6701640,
      "byteStride": 8,
      "name": "floatBufferViews",
      "target": 34962
    },
    {
      "buffer": 0,
      "byteLength": 8982744,
      "byteOffset": 9695888,
      "byteStride": 12,
      "name": "floatBufferViews",
      "target": 34962
    }
  ],
  "buffers": [
    {
      "byteLength": 18678632,
      "uri": "scene.bin"
    }
  ],
  "materials": [
    {
      "doubleSided": true,
      "emissiveFactor": [
        0,
        0,
        0
      ],
      "name": "material",
      "pbrMetallicRoughness": {
        "baseColorFactor": [
          0.21937300000000001,
          0.21937300000000001,
          0.21937300000000001,
          1
        ],
        "metallicFactor": 0,
        "roughnessFactor": 0.74590187357887738
      }
    },
    {
      "doubleSided": true,
      "emissiveFactor": [
        0,
        0,
        0
      ],
      "name": "Material.001",
      "pbrMetallicRoughness": {
        "baseColorFactor": [
          0.16554745450349137,
          0.16554745450349137,
          0.16554745450349137,
          1
        ],
        "metallicFactor": 0,
        "roughnessFactor": 0.45691283153554663
      }
    },
    {
      "doubleSided": true,
      "emissiveFactor": [
        0,
        0,
        0
      ],
      "name": "None",
      "pbrMetallicRoughness": {
        "baseColorFactor": [
          0.80000000000000004,
          0.80000000000000004,
          0.80000000000000004,
          1
        ],
        "metallicFactor": 0,
        "roughnessFactor": 0.62170335639872965
      }
    },
    {
      "doubleSided": true,
      "emissiveFactor": [
        0,
        0,
        0
      ],
      "name": "THRONE",
      "pbrMetallicRoughness": {
        "baseColorFactor": [
          0.21937300000000001,
          0.161076,
          0.143562,
          1
        ],
        "metallicFactor": 0,
        "roughnessFactor": 0.92921061614451583
      }
    }
  ],
  "meshes": [
    {
      "primitives": [
        {
          "attributes": {
            "NORMAL": 1,
            "POSITION": 0,
            "TEXCOORD_0": 2
          },
          "indices": 3,
          "material": 2,
          "mode": 4
        }
      ]
    },
    {
      "primitives": [
        {
          "attributes": {
            "NORMAL": 5,
            "POSITION": 4,
            "TEXCOORD_0": 6
          },
          "indices": 7,
          "material": 3,
          "mode": 4
        }
      ]
    },
    {
      "primitives": [
        {
          "attributes": {
            "NORMAL": 9,
            "POSITION": 8,
            "TEXCOORD_0": 10
          },
          "indices": 11,
          "material": 3,
          "mode": 4
        }
      ]
    },
    {
      "primitives": [
        {
          "attributes": {
            "NORMAL": 13,
            "POSITION": 12,
            "TEXCOORD_0": 14
          },
          "indices": 15,
          "material": 0,
          "mode": 4
        }
      ]
    },
    {
      "primitives": [
        {
          "attributes": {
            "NORMAL": 17,
            "POSITION": 16,
            "TEXCOORD_0": 18
          },
          "indices": 19,
          "material": 1,
          "mode": 4
        }
      ]
    },
    {
      "primitives": [
        {
          "attributes": {
            "NORMAL": 21,
            "POSITION": 20,
            "TEXCOORD_0": 22
          },
          "indices": 23,
          "material": 1,
          "mode": 4
        }
      ]
    },
    {
      "primitives": [
        {
          "attributes": {
            "NORMAL": 25,
            "POSITION": 24,
            "TEXCOORD_0": 26
          },
          "indices": 27,
          "material": 1,
          "mode": 4
        }
      ]
    },
    {
      "primitives": [
        {
          "attributes": {
            "NORMAL": 29,
            "POSITION": 28,
            "TEXCOORD_0": 30
          },
          "indices": 31,
          "material": 1,
          "mode": 4
        }
      ]
    },
    {
      "primitives": [
        {
          "attributes": {
            "NORMAL": 33,
            "POSITION": 32,
            "TEXCOORD_0": 34
          },
          "indices": 35,
          "material": 1,
          "mode": 4
        }
      ]
    },
    {
      "primitives": [
        {
          "attributes": {
            "NORMAL": 37,
            "POSITION": 36,
            "TEXCOORD_0": 38
          },
          "indices": 39,
          "material": 1,
          "mode": 4
        }
      ]
    }
  ],
  "nodes": [
    {
      "children": [
        1
      ],
      "name": "RootNode (gltf orientation matrix)",
      "rotation": [
        -0.70710678118654746,
        -0,
        -0,
        0.70710678118654757
      ]
    },
    {
      "children": [
        2
      ],
      "name": "RootNode (model correction matrix)"
    },
    {
      "children": [
        3,
        4,
        5,
        6,
        7,
        8,
        9,
        10,
        11,
        12
      ],
      "name": "JABBA Sketchfab.obj.cleaner.materialmerger.gles"
    },
    {
      "mesh": 0,
      "name": ""
    },
    {
      "mesh": 1,
      "name": ""
    },
    {
      "mesh": 2,
      "name": ""
    },
    {
      "mesh": 3,
      "name": ""
    },
    {
      "mesh": 4,
      "name": ""
    },
    {
      "mesh": 5,
      "name": ""
    },
    {
      "mesh": 6,
      "name": ""
    },
    {
      "mesh": 7,
      "name": ""
    },
    {
      "mesh": 8,
      "name": ""
    },
    {
      "mesh": 9,
      "name": ""
    }
  ],
  "scene": 0,
  "scenes": [
    {
      "name": "OSG_Scene",
      "nodes": [
        0
      ]
    }
  ]
}

